<svg width="357" height="214" viewBox="0 0 357 214" fill="none" xmlns="http://www.w3.org/2000/svg">
<path d="M237.285 56.7871H46.6291C44.6656 56.7866 42.7251 57.2105 40.9407 58.0298C39.1562 58.849 37.57 60.0443 36.2905 61.5337C35.0109 63.0231 34.0682 64.7714 33.5273 66.659C32.9863 68.5465 32.8599 70.5287 33.1563 72.4697L54.4704 211.984H272.703L250.758 68.3963C250.273 65.1693 248.646 62.2232 246.174 60.093C243.702 57.9628 240.548 56.7899 237.285 56.7871Z" fill="url(#paint0_linear_1_200)"/>
<path d="M53.5113 158.12C33.3198 158.12 16.9514 141.751 16.9514 121.56C16.9513 101.368 33.3198 85 53.5113 85C73.7028 85 90.0713 101.368 90.0713 121.56C90.0713 141.751 73.7028 158.12 53.5113 158.12Z" stroke="#383838" stroke-width="1.2" stroke-linecap="round" stroke-linejoin="round"/>
<path d="M27.3947 147.128L1.00029 173.523" stroke="#383838" stroke-width="1.2" stroke-linecap="round" stroke-linejoin="round"/>
<path d="M357 212.623H54.5088" stroke="#383838" stroke-miterlimit="10"/>
<rect x="163.03" y="32.1978" width="119" height="35" rx="17.5" transform="rotate(4.61647 163.03 32.1978)" fill="#CAFFA0"/>
<path d="M179.418 51.5516C179.947 51.7655 180.303 52.0617 180.486 52.4404C180.67 52.8191 180.741 53.2583 180.701 53.758C180.654 54.2036 180.517 54.5778 180.289 54.8805C180.072 55.184 179.796 55.4239 179.461 55.6001C179.125 55.7764 178.752 55.896 178.34 55.9591C177.928 56.0222 177.51 56.0365 177.085 56.0022C176.681 55.9696 176.274 55.8993 175.866 55.7914C175.468 55.6843 175.111 55.5271 174.796 55.3198C174.481 55.1124 174.224 54.8509 174.025 54.5351C173.836 54.2203 173.75 53.8334 173.765 53.3745L175.089 53.4814C175.113 53.7081 175.199 53.9023 175.347 54.064C175.495 54.2151 175.672 54.3471 175.877 54.46C176.093 54.563 176.317 54.6453 176.547 54.7067C176.789 54.7584 177.006 54.7919 177.197 54.8074C177.42 54.8254 177.65 54.8279 177.887 54.8149C178.134 54.8027 178.362 54.757 178.572 54.6776C178.782 54.5982 178.957 54.4786 179.099 54.3188C179.241 54.1484 179.323 53.9249 179.345 53.6485C179.363 53.4252 179.332 53.2194 179.251 53.0309C179.171 52.8318 179.033 52.6762 178.839 52.5642C178.665 52.4646 178.462 52.4 178.229 52.3705C177.996 52.3303 177.779 52.3021 177.577 52.2858L176.078 52.1647L176.175 50.9686L177.403 51.0678C177.605 51.0841 177.813 51.0849 178.029 51.0702C178.245 51.0448 178.442 50.9911 178.619 50.9092C178.808 50.8281 178.961 50.7174 179.08 50.5772C179.21 50.4271 179.291 50.209 179.325 49.9228C179.343 49.6995 179.305 49.5092 179.211 49.3517C179.127 49.1951 179.004 49.0675 178.84 48.9687C178.689 48.8601 178.508 48.7813 178.298 48.7322C178.099 48.6734 177.899 48.6358 177.697 48.6195C177.505 48.604 177.302 48.6037 177.087 48.6184C176.873 48.6225 176.672 48.6598 176.484 48.7302C176.297 48.7901 176.134 48.8839 175.996 49.0119C175.857 49.1398 175.763 49.3141 175.713 49.5348L174.373 49.4266C174.418 49.0022 174.548 48.6542 174.762 48.3825C174.988 48.1012 175.262 47.8879 175.584 47.7426C175.907 47.5868 176.258 47.4867 176.636 47.4423C177.026 47.3882 177.407 47.3761 177.779 47.4062C178.151 47.4362 178.515 47.503 178.87 47.6066C179.236 47.7111 179.555 47.8653 179.828 48.0692C180.101 48.2625 180.317 48.51 180.474 48.8117C180.632 49.1133 180.693 49.4768 180.659 49.9021C180.628 50.2848 180.51 50.6178 180.306 50.9009C180.101 51.184 179.805 51.4009 179.418 51.5516ZM187.875 55.7016C187.674 55.9316 187.451 56.1115 187.205 56.2415C186.959 56.3715 186.705 56.4687 186.443 56.5331C186.192 56.5984 185.937 56.6367 185.679 56.648C185.432 56.6602 185.186 56.6564 184.942 56.6366C184.548 56.6049 184.18 56.527 183.837 56.4029C183.494 56.2789 183.187 56.099 182.917 55.8632C182.658 55.6282 182.456 55.3444 182.312 55.0117C182.178 54.6799 182.128 54.3119 182.16 53.9079C182.199 53.4295 182.316 53.0376 182.512 52.7324C182.719 52.4174 182.98 52.1709 183.294 51.9929C183.608 51.815 183.96 51.7042 184.348 51.6607C184.749 51.6074 185.167 51.5984 185.603 51.6336L188.075 51.8332C188.132 51.1208 188.023 50.5449 187.749 50.1053C187.475 49.6552 186.972 49.3898 186.24 49.3093C185.793 49.2733 185.394 49.3159 185.042 49.4373C184.689 49.5587 184.436 49.7843 184.281 50.1142L182.829 49.9971C182.935 49.6203 183.11 49.3081 183.354 49.0603C183.6 48.8019 183.884 48.6001 184.206 48.4549C184.529 48.299 184.874 48.1931 185.243 48.1373C185.611 48.0814 185.976 48.0681 186.338 48.0973C186.965 48.1479 187.483 48.2967 187.891 48.5437C188.31 48.7809 188.639 49.0804 188.878 49.4421C189.117 49.7931 189.27 50.2122 189.338 50.6992C189.406 51.1862 189.415 51.7274 189.367 52.3228L189 56.868L187.868 56.7766L187.875 55.7016ZM186.5 52.8457C186.245 52.8251 185.947 52.8064 185.606 52.7896C185.276 52.763 184.954 52.7691 184.641 52.808C184.327 52.8469 184.067 52.9596 183.859 53.1462C183.662 53.3336 183.55 53.5921 183.524 53.9217C183.504 54.1662 183.535 54.3774 183.617 54.5552C183.699 54.7331 183.815 54.8869 183.965 55.0167C184.126 55.1474 184.31 55.2479 184.518 55.3183C184.727 55.3886 184.943 55.4328 185.166 55.4508C185.963 55.5152 186.606 55.3745 187.094 55.0286C187.594 54.673 187.879 54.1235 187.95 53.3801L187.983 52.9655L186.5 52.8457ZM198.961 57.8007C198.514 57.7647 198.066 57.6857 197.616 57.5637C197.176 57.4426 196.768 57.2651 196.391 57.0314C196.025 56.7878 195.718 56.4848 195.469 56.1222C195.23 55.7605 195.094 55.3268 195.06 54.8211L196.496 54.937C196.569 55.2212 196.694 55.4614 196.871 55.6576C197.059 55.844 197.271 56.0002 197.507 56.1263C197.754 56.2532 198.013 56.3491 198.286 56.414C198.559 56.4788 198.824 56.5215 199.079 56.5421C199.313 56.561 199.58 56.5612 199.881 56.5427C200.182 56.5242 200.466 56.4562 200.732 56.3386C201.009 56.2218 201.244 56.0374 201.435 55.7854C201.638 55.5235 201.758 55.1693 201.794 54.7228C201.828 54.2975 201.771 53.9504 201.621 53.6815C201.482 53.4134 201.286 53.1996 201.031 53.0399C200.787 52.8811 200.502 52.7671 200.176 52.698C199.86 52.6297 199.538 52.5822 199.208 52.5556L198.124 52.468L198.224 51.2241L198.878 51.2769C199.165 51.3001 199.431 51.3162 199.677 51.3253C199.923 51.3238 200.2 51.2713 200.508 51.1677C200.861 51.0357 201.15 50.8343 201.375 50.5636C201.601 50.2822 201.735 49.9506 201.777 49.5687C201.808 49.1859 201.769 48.8671 201.661 48.6123C201.553 48.3574 201.399 48.1523 201.197 47.9969C200.996 47.8415 200.764 47.7319 200.502 47.6679C200.24 47.5932 199.971 47.5448 199.695 47.5224C199.471 47.5044 199.235 47.5121 198.987 47.5455C198.749 47.5692 198.52 47.6256 198.299 47.7147C198.088 47.8047 197.896 47.9337 197.722 48.1015C197.548 48.2588 197.42 48.4571 197.337 48.6965L195.949 48.5844C196.051 48.1218 196.232 47.7351 196.492 47.4244C196.753 47.1137 197.062 46.8657 197.419 46.6806C197.787 46.4963 198.182 46.373 198.605 46.3108C199.038 46.2494 199.472 46.2364 199.908 46.2716C200.386 46.3102 200.829 46.3994 201.235 46.5392C201.652 46.6692 202.011 46.8641 202.311 47.1238C202.612 47.3728 202.838 47.6907 202.989 48.0774C203.15 48.4649 203.209 48.9245 203.166 49.4561C203.15 49.6581 203.111 49.8744 203.05 50.1049C202.989 50.3247 202.891 50.5415 202.756 50.7554C202.621 50.9692 202.433 51.1787 202.192 51.384C201.951 51.5892 201.643 51.7517 201.27 51.8713C201.971 52.0671 202.488 52.4245 202.82 52.9436C203.154 53.4521 203.293 54.0466 203.238 54.727L203.233 54.7908C203.186 55.3756 203.039 55.872 202.792 56.2801C202.556 56.6785 202.247 57.0013 201.863 57.2485C201.48 57.4851 201.039 57.6475 200.539 57.7356C200.04 57.8237 199.514 57.8454 198.961 57.8007ZM214.044 53.2239C213.986 53.9469 213.855 54.6479 213.65 55.327C213.456 56.0069 213.167 56.6042 212.783 57.119C212.4 57.6231 211.913 58.0172 211.323 58.3013C210.733 58.5854 210.018 58.6936 209.178 58.6257C208.327 58.5571 207.634 58.3352 207.097 57.9601C206.56 57.585 206.143 57.1179 205.845 56.5588C205.549 55.9891 205.359 55.3638 205.275 54.6828C205.19 54.0018 205.179 53.2786 205.241 52.513C205.303 51.7475 205.43 51.0355 205.622 50.3768C205.815 49.7075 206.104 49.1208 206.487 48.6167C206.87 48.1125 207.357 47.7184 207.947 47.4343C208.538 47.1396 209.258 47.0266 210.109 47.0953C210.949 47.1631 211.637 47.3845 212.174 47.7596C212.711 48.1347 213.128 48.6071 213.424 49.1768C213.721 49.7466 213.91 50.3825 213.992 51.0848C214.086 51.7879 214.103 52.5009 214.044 53.2239ZM206.66 52.6277C206.619 53.138 206.614 53.662 206.646 54.1996C206.677 54.7372 206.782 55.2325 206.959 55.6856C207.137 56.1387 207.406 56.5189 207.766 56.8263C208.137 57.1345 208.642 57.3143 209.28 57.3658C209.907 57.4165 210.423 57.3191 210.828 57.0735C211.244 56.8289 211.576 56.4971 211.824 56.0784C212.071 55.6597 212.254 55.1875 212.371 54.6619C212.489 54.1363 212.568 53.6183 212.609 53.108C212.649 52.6083 212.654 52.0896 212.622 51.552C212.591 51.0144 212.486 50.5191 212.309 50.066C212.132 49.6023 211.859 49.2163 211.488 48.9081C211.128 48.5901 210.635 48.4058 210.007 48.3552C209.369 48.3037 208.842 48.4055 208.425 48.6608C208.02 48.9064 207.694 49.2438 207.445 49.6732C207.197 50.0919 207.014 50.5641 206.897 51.0897C206.78 51.6153 206.701 52.128 206.66 52.6277ZM223.431 59.7446C222.761 59.6905 222.191 59.5374 221.719 59.2852C221.247 59.0331 220.867 58.7028 220.579 58.2943C220.291 57.8857 220.088 57.4146 219.97 56.8807C219.853 56.3469 219.819 55.7716 219.869 55.155C219.917 54.5596 220.047 54.0082 220.259 53.501C220.472 52.9831 220.759 52.5461 221.12 52.19C221.481 51.8232 221.921 51.5484 222.438 51.3655C222.957 51.1719 223.572 51.1039 224.285 51.1614C224.71 51.1957 225.084 51.2741 225.406 51.3964C225.728 51.508 226.025 51.6765 226.296 51.9017C226.578 52.1171 226.813 52.3928 226.999 52.729C227.186 53.0651 227.309 53.4656 227.368 53.9305L225.98 53.8185C225.859 53.3378 225.631 52.9823 225.296 52.752C224.972 52.5225 224.576 52.3942 224.107 52.367C223.65 52.3301 223.239 52.3879 222.873 52.5403C222.519 52.6829 222.224 52.8892 221.989 53.1591C221.763 53.4298 221.587 53.7527 221.461 54.1277C221.335 54.4921 221.256 54.871 221.225 55.2644C221.191 55.6791 221.207 56.0763 221.273 56.4562C221.349 56.8369 221.477 57.1789 221.656 57.4823C221.846 57.7759 222.099 58.0211 222.415 58.2178C222.732 58.4039 223.118 58.5154 223.576 58.5523C223.799 58.5703 224.019 58.5667 224.235 58.5413C224.461 58.5168 224.669 58.464 224.857 58.3829C225.057 58.2921 225.233 58.1671 225.385 58.0082C225.537 57.8492 225.655 57.6501 225.739 57.4107L227.142 57.524C227.022 57.9531 226.837 58.318 226.588 58.619C226.351 58.9101 226.064 59.1492 225.728 59.336C225.392 59.5123 225.029 59.6328 224.639 59.6976C224.248 59.7624 223.846 59.778 223.431 59.7446ZM230.017 56.4559C230.019 56.8306 230.065 57.1822 230.157 57.5106C230.259 57.8292 230.407 58.1141 230.601 58.3652C230.795 58.6162 231.04 58.8233 231.338 58.9864C231.646 59.1398 232.008 59.2332 232.423 59.2667C232.625 59.283 232.833 59.2838 233.048 59.2691C233.275 59.2446 233.488 59.1975 233.686 59.1279C233.885 59.0477 234.065 58.9391 234.226 58.8023C234.387 58.6655 234.513 58.4937 234.605 58.2871L235.992 58.3991C235.864 58.7954 235.671 59.133 235.413 59.4118C235.165 59.6915 234.874 59.9141 234.54 60.0797C234.216 60.2462 233.859 60.3618 233.469 60.4266C233.079 60.4808 232.688 60.492 232.294 60.4602C231.624 60.4061 231.048 60.2526 230.566 59.9996C230.094 59.7475 229.708 59.422 229.408 59.0233C229.11 58.6139 228.902 58.1423 228.784 57.6085C228.668 57.064 228.635 56.4781 228.685 55.8508C228.736 55.2235 228.867 54.6562 229.08 54.149C229.303 53.632 229.595 53.1954 229.956 52.8393C230.316 52.4832 230.744 52.2181 231.24 52.0441C231.736 51.8701 232.313 51.8097 232.972 51.8629C233.642 51.917 234.211 52.0967 234.678 52.402C235.146 52.7073 235.511 53.0899 235.774 53.5498C236.037 53.9992 236.207 54.4784 236.284 54.9875C236.371 55.4976 236.387 55.9643 236.331 56.3879C236.323 56.4836 236.31 56.5789 236.292 56.6737C236.284 56.7694 236.271 56.8646 236.253 56.9595L230.017 56.4559ZM235.008 55.6711C235.045 54.9571 234.868 54.3596 234.479 53.8787C234.09 53.3978 233.539 53.1286 232.827 53.0711C232.433 53.0393 232.082 53.0752 231.774 53.1788C231.466 53.2823 231.202 53.4376 230.982 53.6445C230.762 53.8515 230.582 54.0991 230.441 54.3873C230.301 54.665 230.202 54.962 230.144 55.2784L235.008 55.6711ZM237.808 60.8091L238.486 52.4045L239.842 52.5139L239.55 56.1341L241.017 56.2526L243.797 52.8333L245.344 52.9582L242.214 56.7345L244.905 61.3822L243.31 61.2534L241.081 57.4457L239.454 57.3143L239.163 60.9186L237.808 60.8091ZM252.801 53.5603L254.332 53.6839L251.421 60.1105C251.266 60.4404 251.096 60.8173 250.912 61.2412C250.74 61.6554 250.546 62.0678 250.331 62.4785C250.126 62.9006 249.896 63.2941 249.642 63.6588C249.398 64.0244 249.134 64.3134 248.849 64.5259C248.428 64.8449 248.033 65.0324 247.664 65.0883C247.295 65.1548 246.882 65.1696 246.425 65.1327L246.138 65.1095L246.242 63.8177C246.625 63.8486 246.952 63.8323 247.225 63.7687C247.497 63.7157 247.735 63.6119 247.94 63.4572C248.156 63.3034 248.343 63.1045 248.502 62.8605C248.672 62.6174 248.845 62.3264 249.022 61.9875L245.959 53.0079L247.554 53.1366L249.901 60.4532L252.801 53.5603ZM254.908 62.1899L255.587 53.7853L256.943 53.8948L256.645 57.5788L260.855 57.9187L261.153 54.2347L262.509 54.3442L261.83 62.7488L260.474 62.6394L260.759 59.1148L256.549 58.7749L256.264 62.2994L254.908 62.1899ZM265.459 56.4445C265.494 56.137 265.525 55.8291 265.549 55.5208C265.574 55.2124 265.599 54.9041 265.624 54.5958L271.589 55.0774L271.005 62.3019L272.106 62.3907L271.802 66.1545L270.494 66.0489L270.703 63.4653L264.563 62.9695L264.354 65.5531L263.046 65.4475L263.35 61.6837C263.776 61.7181 264.126 61.5538 264.401 61.1907C264.567 60.9901 264.709 60.6966 264.826 60.31C264.943 59.9129 265.041 59.4928 265.12 59.0496C265.213 58.5649 265.284 58.0837 265.333 57.6061C265.394 57.1187 265.436 56.7315 265.459 56.4445ZM270.137 56.164L266.819 55.8962C266.773 56.3419 266.722 56.8407 266.666 57.3927C266.611 57.9447 266.548 58.4587 266.478 58.9345C266.45 59.1463 266.415 59.3789 266.373 59.6324C266.332 59.8752 266.274 60.1274 266.2 60.3889C266.137 60.6406 266.046 60.8955 265.929 61.1536C265.823 61.4125 265.681 61.6472 265.503 61.8576L269.65 62.1924L270.137 56.164Z" fill="#383838"/>
<rect x="163.03" y="32.1978" width="119" height="35" rx="17.5" transform="rotate(4.61647 163.03 32.1978)" stroke="#383838"/>
<rect x="120" y="11.886" width="98" height="36" rx="18" transform="rotate(-6.96632 120 11.886)" fill="white"/>
<path d="M130.74 22.3486L138.379 21.4152L138.533 22.6699L132.275 23.4345L132.689 26.8173L135.246 26.5049C135.796 26.4376 136.325 26.4159 136.833 26.4398C137.351 26.4518 137.814 26.551 138.224 26.7374C138.643 26.9119 138.994 27.1913 139.277 27.5758C139.559 27.9497 139.741 28.4648 139.821 29.1213C139.905 29.8095 139.862 30.3843 139.693 30.8455C139.522 31.2962 139.257 31.6778 138.898 31.9904C138.549 32.3017 138.122 32.5472 137.618 32.7271C137.113 32.907 136.57 33.0325 135.987 33.1036L132.112 33.5771L130.74 22.3486ZM133.341 32.1536L135.659 31.8703C136.041 31.8237 136.409 31.7573 136.763 31.6709C137.128 31.5727 137.443 31.432 137.711 31.2489C137.978 31.0551 138.179 30.8102 138.315 30.5143C138.45 30.2183 138.49 29.8426 138.435 29.3874C138.379 28.9321 138.251 28.5877 138.051 28.3543C137.849 28.1103 137.603 27.9416 137.312 27.8482C137.02 27.7442 136.692 27.6983 136.328 27.7105C135.973 27.7109 135.611 27.7337 135.24 27.779L132.842 28.072L133.341 32.1536ZM142.784 28.5335C142.861 28.9002 142.977 29.2353 143.133 29.5387C143.297 29.8302 143.5 30.0795 143.74 30.2866C143.98 30.4936 144.262 30.6472 144.586 30.7474C144.919 30.8356 145.292 30.8545 145.705 30.804C145.906 30.7795 146.111 30.7384 146.319 30.6807C146.536 30.6112 146.734 30.5224 146.915 30.4144C147.094 30.2959 147.248 30.1534 147.378 29.9871C147.508 29.8207 147.598 29.6271 147.646 29.4063L149.028 29.2375C148.981 29.6515 148.86 30.0209 148.663 30.3459C148.477 30.6695 148.237 30.946 147.943 31.1754C147.659 31.4035 147.332 31.5885 146.963 31.7303C146.592 31.8616 146.211 31.9512 145.819 31.9991C145.152 32.0806 144.556 32.0458 144.033 31.8949C143.52 31.7426 143.077 31.5013 142.703 31.1708C142.329 30.8298 142.03 30.4095 141.808 29.9101C141.584 29.4001 141.434 28.8328 141.358 28.2081C141.282 27.5834 141.297 27.0013 141.403 26.4618C141.518 25.9104 141.716 25.4241 141.998 25.0028C142.28 24.5815 142.646 24.2359 143.096 23.9659C143.547 23.696 144.101 23.5209 144.757 23.4407C145.424 23.3592 146.017 23.421 146.537 23.6262C147.056 23.8314 147.49 24.1329 147.84 24.5308C148.188 24.9181 148.451 25.3534 148.628 25.8368C148.816 26.3189 148.925 26.7731 148.956 27.1992C148.967 27.2944 148.974 27.3904 148.975 27.487C148.986 27.5823 148.993 27.6782 148.994 27.7748L142.784 28.5335ZM147.516 26.7625C147.408 26.0557 147.116 25.5059 146.638 25.1129C146.16 24.72 145.566 24.5668 144.857 24.6535C144.465 24.7014 144.129 24.807 143.848 24.9702C143.567 25.1335 143.339 25.3386 143.165 25.5855C142.991 25.8325 142.864 26.1113 142.784 26.422C142.702 26.7221 142.665 27.0329 142.672 27.3544L147.516 26.7625ZM154.875 30.8925C154.208 30.974 153.618 30.9386 153.105 30.7864C152.592 30.6341 152.154 30.3868 151.79 30.0445C151.425 29.7021 151.132 29.2812 150.91 28.7818C150.688 28.2824 150.539 27.7257 150.464 27.1116C150.392 26.5186 150.409 25.9524 150.515 25.4129C150.619 24.8628 150.812 24.3771 151.094 23.9559C151.374 23.524 151.75 23.1665 152.22 22.8834C152.69 22.5896 153.279 22.3994 153.988 22.3127C154.412 22.261 154.793 22.2627 155.133 22.3179C155.472 22.3625 155.796 22.4679 156.107 22.6341C156.427 22.7885 156.712 23.0116 156.962 23.3033C157.213 23.5951 157.414 23.9628 157.565 24.4064L156.183 24.5753C155.967 24.1288 155.672 23.8263 155.298 23.6678C154.935 23.5081 154.521 23.4619 154.056 23.5295C153.601 23.5851 153.21 23.7242 152.882 23.9469C152.564 24.1577 152.317 24.419 152.14 24.7308C151.974 25.0412 151.866 25.3928 151.817 25.7857C151.767 26.1679 151.766 26.5549 151.814 26.9466C151.865 27.3595 151.96 27.7455 152.101 28.1044C152.252 28.462 152.445 28.7715 152.682 29.0328C152.927 29.2822 153.224 29.4716 153.573 29.6009C153.921 29.7196 154.322 29.7511 154.777 29.6955C155 29.6683 155.214 29.6206 155.421 29.5524C155.638 29.4829 155.831 29.3895 155.999 29.2722C156.177 29.143 156.324 28.9853 156.441 28.7991C156.558 28.6129 156.633 28.3941 156.667 28.1429L158.065 27.9721C158.033 28.4165 157.925 28.8112 157.742 29.156C157.568 29.4889 157.335 29.7806 157.043 30.0312C156.75 30.2712 156.419 30.4621 156.049 30.604C155.679 30.7459 155.288 30.842 154.875 30.8925ZM160.069 30.1612L159.046 21.7914L165.986 20.9434L167.009 29.3132L165.659 29.4781L164.782 22.2995L160.542 22.8176L161.419 29.9962L160.069 30.1612ZM169.441 25.0346C169.401 24.2658 169.347 23.5202 169.28 22.7976C169.224 22.0737 169.155 21.33 169.072 20.5664L174.885 19.8561L175.908 28.2259L174.558 28.3908L173.68 21.2122L170.536 21.5964L170.795 24.9015C170.825 25.3276 170.836 25.8098 170.826 26.3483C170.817 26.8867 170.722 27.3873 170.542 27.8498C170.4 28.1789 170.187 28.4574 169.903 28.6855C169.619 28.9136 169.276 29.0523 168.874 29.1014L168.381 29.1616L168.236 27.9704C168.659 27.9187 168.976 27.6973 169.186 27.3063C169.309 27.0764 169.388 26.7551 169.423 26.3424C169.459 25.9297 169.465 25.4938 169.441 25.0346ZM183.41 26.2292C183.26 26.4947 183.077 26.7158 182.862 26.8925C182.647 27.0692 182.418 27.2154 182.174 27.3312C181.941 27.4456 181.7 27.5343 181.449 27.5971C181.21 27.6586 180.968 27.7042 180.725 27.734C180.333 27.7819 179.956 27.7795 179.595 27.7269C179.234 27.6743 178.898 27.5596 178.586 27.3828C178.285 27.2046 178.03 26.9671 177.822 26.6702C177.624 26.3719 177.501 26.0217 177.452 25.6193C177.394 25.1429 177.43 24.7355 177.561 24.3971C177.7 24.0469 177.906 23.7531 178.178 23.5157C178.45 23.2783 178.772 23.0993 179.144 22.9786C179.526 22.846 179.933 22.7532 180.367 22.7002L182.829 22.3994C182.742 21.69 182.52 21.1476 182.163 20.7722C181.804 20.3862 181.258 20.2272 180.525 20.2953C180.08 20.3496 179.698 20.4716 179.377 20.6613C179.056 20.8509 178.853 21.1229 178.767 21.4772L177.322 21.6538C177.35 21.2636 177.458 20.9225 177.648 20.6307C177.837 20.3282 178.075 20.0735 178.361 19.8666C178.646 19.6491 178.963 19.476 179.313 19.3473C179.663 19.2186 180.017 19.1323 180.377 19.0883C181.002 19.012 181.539 19.0538 181.989 19.2138C182.447 19.3619 182.83 19.5892 183.136 19.8957C183.441 20.1916 183.675 20.5713 183.839 21.0348C184.003 21.4983 184.121 22.0265 184.194 22.6195L184.747 27.1458L183.619 27.2836L183.41 26.2292ZM181.49 23.7075C181.236 23.7385 180.94 23.78 180.602 23.832C180.274 23.8721 179.96 23.9427 179.661 24.0437C179.362 24.1448 179.129 24.3075 178.963 24.532C178.808 24.7552 178.75 25.0308 178.79 25.3591C178.82 25.6026 178.893 25.8032 179.009 25.961C179.125 26.1188 179.269 26.2462 179.442 26.3432C179.626 26.439 179.827 26.5004 180.045 26.5275C180.263 26.5546 180.484 26.5545 180.706 26.5273C181.5 26.4303 182.102 26.1634 182.51 25.7266C182.928 25.2779 183.097 24.6824 183.017 23.9399L182.967 23.527L181.49 23.7075ZM191.994 17.7656L192.139 18.9568L189.265 19.308L190.142 26.4866L188.792 26.6516L187.915 19.473L185.04 19.8242L184.895 18.6331L191.994 17.7656ZM194.221 25.9882L193.198 17.6184L194.548 17.4535L194.997 21.1222L199.189 20.6099L198.741 16.9412L200.091 16.7762L201.114 25.146L199.764 25.3109L199.335 21.801L195.142 22.3133L195.571 25.8232L194.221 25.9882ZM205.898 15.97C206.565 15.8885 207.155 15.9239 207.668 16.0761C208.181 16.2284 208.625 16.475 208.999 16.8161C209.385 17.1558 209.689 17.5807 209.913 18.0907C210.146 18.5888 210.3 19.1502 210.376 19.7749C210.453 20.3996 210.439 20.987 210.334 21.5371C210.238 22.0753 210.045 22.5557 209.752 22.9782C209.469 23.3889 209.092 23.7305 208.62 24.0031C208.149 24.2757 207.579 24.4527 206.912 24.5342C206.245 24.6157 205.65 24.581 205.126 24.43C204.613 24.2778 204.165 24.0371 203.781 23.7079C203.406 23.3668 203.102 22.9472 202.869 22.4491C202.646 21.9391 202.496 21.3718 202.42 20.7471C202.343 20.1224 202.353 19.541 202.448 19.0028C202.553 18.4527 202.746 17.967 203.028 17.5457C203.32 17.1232 203.702 16.7756 204.174 16.503C204.646 16.2305 205.22 16.0528 205.898 15.97ZM206.767 23.3431C207.222 23.2874 207.604 23.1602 207.913 22.9612C208.232 22.761 208.481 22.5103 208.659 22.2092C208.846 21.8961 208.965 21.5485 209.015 21.1663C209.076 20.7828 209.079 20.3739 209.026 19.9398C208.975 19.5163 208.873 19.1257 208.722 18.7681C208.58 18.3986 208.381 18.0898 208.125 17.8416C207.879 17.5816 207.576 17.3929 207.218 17.2755C206.87 17.1568 206.469 17.1253 206.014 17.1809C205.558 17.2365 205.176 17.3638 204.867 17.5627C204.559 17.7616 204.31 18.0176 204.123 18.3307C203.945 18.6318 203.826 18.9795 203.767 19.3736C203.717 19.7558 203.718 20.1587 203.77 20.5822C203.823 21.0163 203.919 21.4128 204.06 21.7717C204.211 22.1294 204.41 22.4382 204.657 22.6982C204.913 22.9463 205.215 23.1297 205.562 23.2484C205.91 23.3672 206.311 23.3987 206.767 23.3431Z" fill="#383838"/>
<defs>
<linearGradient id="paint0_linear_1_200" x1="152.852" y1="211.984" x2="152.852" y2="56.7871" gradientUnits="userSpaceOnUse">
<stop stop-color="#FBFFDE"/>
<stop offset="1" stop-color="#BFFF93"/>
</linearGradient>
</defs>
</svg>
